<?xml version="1.0" standalone="yes"?>
<svg xmlns="http://www.w3.org/2000/svg" width="256" height="256">
<path style="fill:#4b714d; stroke:none;" d="M0 0L0 256L256 256L256 0L0 0z"/>
<path style="fill:#774020; stroke:none;" d="M117 10.4282C68.5952 17.3596 22.8871 48.1603 10.206 98C-10.2098 178.239 63.0885 253.482 143 242.718C162.109 240.143 181.199 234.204 197 222.845C220.794 205.74 240.145 181.223 246.483 152C262.861 76.4872 194.914 -0.72876 117 10.4282z"/>
<path style="fill:#4b714d; stroke:none;" d="M128 12L129 13L128 12z"/>
<path style="fill:#d19660; stroke:none;" d="M129 12L130 13L129 12z"/>
<path style="fill:#4b714d; stroke:none;" d="M131 12L132 13L131 12z"/>
<path style="fill:#d19660; stroke:none;" d="M113 13L113 14L117 14L113 13z"/>
<path style="fill:#e1bf9f; stroke:none;" d="M117 13L117 14L122 14L117 13z"/>
<path style="fill:#f4e9de; stroke:none;" d="M35 60L42 54L41 60L45 58L49 60L42 64L51 64L51 65L38 67L36 72L43 71L43 77L48 75L48 77L51 76L54 76L55 76C59.3904 79.1095 64.5327 77.2115 69 75L70 78L80 78L100 77L98 78L98 79L103 79L103 76L105 76L104 78L104 79L114 78L138 73L147 75L147 74L145 74L145 73L155 71L154 75L158 74L157 71L174 68C176.371 70.6583 179.007 69.2629 182 68L182 67L175 67L174 63L167 62L158 60L165 56L163 61L166 61L166 57L170 59L164 55L164 54L172 51C173.397 53.5119 175.582 54.3986 176 51L207 48L206 45L214 51C175.217 -4.05701 68.2475 2.20601 35 60z"/>
<path style="fill:#e1bf9f; stroke:none;" d="M136.667 13.3333L137.333 13.6667L136.667 13.3333z"/>
<path style="fill:#d19660; stroke:none;" d="M138 13L138 14L143 14L138 13z"/>
<path style="fill:#4b714d; stroke:none;" d="M143 13L144 14L143 13z"/>
<path style="fill:#d19660; stroke:none;" d="M107 14L107 15L110 15L107 14z"/>
<path style="fill:#e1bf9f; stroke:none;" d="M110.667 14.3333L111.333 14.6667L110.667 14.3333M145.667 14.3333L146.333 14.6667L145.667 14.3333z"/>
<path style="fill:#d19660; stroke:none;" d="M147.667 14.3333L148.333 14.6667L147.667 14.3333z"/>
<path style="fill:#4b714d; stroke:none;" d="M149 14L150 15L149 14z"/>
<path style="fill:#d19660; stroke:none;" d="M102.667 15.3333L103.333 15.6667L102.667 15.3333z"/>
<path style="fill:#e1bf9f; stroke:none;" d="M104.667 15.3333L105.333 15.6667L104.667 15.3333M151 15L152 16L151 15z"/>
<path style="fill:#d19660; stroke:none;" d="M152.667 15.3333L153.333 15.6667L152.667 15.3333z"/>
<path style="fill:#4b714d; stroke:none;" d="M154 15L155 16L154 15z"/>
<path style="fill:#d19660; stroke:none;" d="M98.6667 16.3333L99.3333 16.6667L98.6667 16.3333z"/>
<path style="fill:#e1bf9f; stroke:none;" d="M100 16L101 17L100 16M156 16L157 17L156 16z"/>
<path style="fill:#d19660; stroke:none;" d="M157.667 16.3333L158.333 16.6667L157.667 16.3333M94.6667 17.3333L95.3333 17.6667L94.6667 17.3333z"/>
<path style="fill:#e1bf9f; stroke:none;" d="M96 17L97 18L96 17M160 17L161 18L160 17z"/>
<path style="fill:#d19660; stroke:none;" d="M161 17L162 18L161 17M91.6667 18.3333L92.3333 18.6667L91.6667 18.3333z"/>
<path style="fill:#e1bf9f; stroke:none;" d="M93 18L94 19L93 18M163 18L164 19L163 18z"/>
<path style="fill:#d19660; stroke:none;" d="M164 18L165 19L164 18M88.6667 19.3333L89.3333 19.6667L88.6667 19.3333z"/>
<path style="fill:#e1bf9f; stroke:none;" d="M90 19L91 20L90 19M166 19L167 20L166 19z"/>
<path style="fill:#d19660; stroke:none;" d="M167 19L168 20L167 19z"/>
<path style="fill:#4b714d; stroke:none;" d="M85 20L86 21L85 20z"/>
<path style="fill:#d19660; stroke:none;" d="M86 20L87 21L86 20z"/>
<path style="fill:#e1bf9f; stroke:none;" d="M87 20L88 21L87 20M169 20L170 21L169 20z"/>
<path style="fill:#d19660; stroke:none;" d="M170 20L171 21L170 20M83 21L84 22L83 21z"/>
<path style="fill:#e1bf9f; stroke:none;" d="M84 21L85 22L84 21z"/>
<path style="fill:#d19660; stroke:none;" d="M172.667 21.3333L173.333 21.6667L172.667 21.3333M81 22L82 23L81 22z"/>
<path style="fill:#e1bf9f; stroke:none;" d="M174 22L175 23L174 22z"/>
<path style="fill:#d19660; stroke:none;" d="M175 22L176 23L175 22M78 23L79 24L78 23z"/>
<path style="fill:#e1bf9f; stroke:none;" d="M79 23L80 24L79 23z"/>
<path style="fill:#d19660; stroke:none;" d="M177 23L178 24L177 23M76 24L77 25L76 24z"/>
<path style="fill:#e1bf9f; stroke:none;" d="M77 24L78 25L77 24z"/>
<path style="fill:#d19660; stroke:none;" d="M179 24L180 25L179 24M74 25L75 26L74 25z"/>
<path style="fill:#e1bf9f; stroke:none;" d="M75 25L76 26L75 25z"/>
<path style="fill:#d19660; stroke:none;" d="M181 25L182 26L181 25M72 26L73 27L72 26z"/>
<path style="fill:#e1bf9f; stroke:none;" d="M73 26L74 27L73 26z"/>
<path style="fill:#d19660; stroke:none;" d="M183 26L184 27L183 26z"/>
<path style="fill:#4b714d; stroke:none;" d="M70 27L71 28L70 27z"/>
<path style="fill:#e1bf9f; stroke:none;" d="M71 27L72 28L71 27z"/>
<path style="fill:#d19660; stroke:none;" d="M185 27L186 28L185 27M69 28L70 29L69 28M187 28L188 29L187 28M67 29L68 30L67 29z"/>
<path style="fill:#e1bf9f; stroke:none;" d="M188 29L189 30L188 29z"/>
<path style="fill:#d19660; stroke:none;" d="M65 30L66 31L65 30z"/>
<path style="fill:#e1bf9f; stroke:none;" d="M66 30L67 31L66 30z"/>
<path style="fill:#d19660; stroke:none;" d="M190 30L191 31L190 30M64 31L65 32L64 31M192 31L193 32L192 31M62 32L63 33L62 32z"/>
<path style="fill:#e1bf9f; stroke:none;" d="M63 32L64 33L63 32M193 32L194 33L193 32z"/>
<path style="fill:#d19660; stroke:none;" d="M61 33L62 34L61 33M195 33L196 34L195 33M59 34L60 35L59 34z"/>
<path style="fill:#e1bf9f; stroke:none;" d="M60 34L61 35L60 34M196 34L197 35L196 34z"/>
<path style="fill:#d19660; stroke:none;" d="M58 35L59 36L58 35z"/>
<path style="fill:#e1bf9f; stroke:none;" d="M197 35L198 36L197 35z"/>
<path style="fill:#d19660; stroke:none;" d="M198 35L199 36L198 35z"/>
<path style="fill:#e1bf9f; stroke:none;" d="M57 36L58 37L57 36z"/>
<path style="fill:#d19660; stroke:none;" d="M199 36L200 37L199 36M55 37L56 38L55 37z"/>
<path style="fill:#e1bf9f; stroke:none;" d="M200 37L201 38L200 37z"/>
<path style="fill:#d19660; stroke:none;" d="M54 38L55 39L54 38z"/>
<path style="fill:#e1bf9f; stroke:none;" d="M201 38L202 39L201 38z"/>
<path style="fill:#d19660; stroke:none;" d="M202 38L203 39L202 38z"/>
<path style="fill:#e1bf9f; stroke:none;" d="M53 39L54 40L53 39z"/>
<path style="fill:#d19660; stroke:none;" d="M203 39L204 40L203 39z"/>
<path style="fill:#e1bf9f; stroke:none;" d="M52 40L53 41L52 40z"/>
<path style="fill:#d19660; stroke:none;" d="M204 40L205 41L204 40M50 41L51 42L50 41z"/>
<path style="fill:#e1bf9f; stroke:none;" d="M51 41L52 42L51 41z"/>
<path style="fill:#d19660; stroke:none;" d="M205 41L206 42L205 41M49 42L50 43L49 42z"/>
<path style="fill:#e1bf9f; stroke:none;" d="M206 42L207 43L206 42z"/>
<path style="fill:#d19660; stroke:none;" d="M48 43L49 44L48 43z"/>
<path style="fill:#e1bf9f; stroke:none;" d="M207 43L208 44L207 43z"/>
<path style="fill:#d19660; stroke:none;" d="M47 44L48 45L47 44z"/>
<path style="fill:#e1bf9f; stroke:none;" d="M202 44L203 45L202 44M205 44L203 48L204 48L205 44M208 44L209 45L208 44z"/>
<path style="fill:#d19660; stroke:none;" d="M46 45L47 46L46 45z"/>
<path style="fill:#e1bf9f; stroke:none;" d="M206 45L207 48L176 51C175.549 54.3556 173.617 52.9858 172 51L164 54L164 55L170 59L166 57L163 61L165 56L158 60L167 62L174 63L175 67L182 67L182 68L174 68L157 71L158 74L154 75L155 71L145 73L145 74L147 74L147 75L138 73C138 79.0511 116.386 72.1422 114 78L104 79L104 78L106 77L103 76L103 79L98 79L98 78L100 77L80 78C77.607 75.6745 72.6803 76.268 70 78L69 75L55 76L54 76L51 76L48 77L48 75L43 77L43 71L41 73L40 73L36 72L38 67L51 65L51 64L42 64L49 60L45 58L41 60L42 54L35 60L37 57C29.8578 62.9028 23.9362 73.9625 22 83L23 83L24 80L32 81L32 82L21 84L20 92C25.6956 95.1703 29.2508 98.1777 36 97L37 100L40 98L40 101L41 101L46 97L43 103L61 101L55 105L55 104L57 102L48 107L64 108L38.9961 111.773L26 116L24 122L21 121L21 122L23 122L23 123L18 124L18 125L21 126L21 142L23 140L24 140C32.1119 146.153 50.1327 143.663 60 145L58 147L64 148L63 152L46 146L46 147L69 158L69 157L64 150L74 155L74 156L67 154L67 155L80 165L83 162L81 165L106 166.37L113 162L122 164L89 167L91 170L52 178L52 182L53 182L57 181L49 184L45 180L48 190L50 188L66 190L81 192C90.0244 185.703 107.959 188.939 118 191L114 185C118.331 184.569 119.863 186.39 122 190C125.106 189.482 129.016 185.938 128 190L129 190L130 190L129 187L152 183L149 179L157 179C161.105 172.644 179.641 172.768 187 170L187 169L163 169L163 168L166 167L166 166L159 164L155 167L155 166L158 166L158 165L153 165L155 169L152 170L152 171L161 170C149.393 180.096 125.993 173.299 112 179L108 176L106 181L76 176L76 178L71 177L71 176L99.8302 168.993L121 169L119 166L133 167.816L151 171L150 167C143.959 168.594 140.802 168.363 135 166C141.163 163.016 148.219 159.521 155 161L155 160L155 157L159 160L149 153L159 154L159 157L164 159L164 158L160 153C165.332 155.438 172.352 153.427 177 150L152 146L153 144L145 143L145 142L150 141L150 140L146 138L132 139.986L99.9815 142.014L85 144L71 143L43 142.119L34 142L26 137L40 130C36.4202 130.403 34.8059 130.201 33 127L37 127L35 124L38 125L37 120L30 121L30 120L42 119L35 116C41.357 110.546 56.3788 113.735 64.2855 114.414C87.0744 116.373 110.073 115.024 133 117L133 112L140 115L137 116L137 117L146 116C148.017 119.065 149.987 118.359 151 115L158 119L161 116L160 119C166.544 117.803 172.265 118.512 178 122L175 123L175 121L163 122L164 125L159 123L165 126L165 127L160 130L160 131L176 131L176 132L172 133L175 139L159 137L152 138L154 139L154 140L151 140L151 141L174 141L179 138L179 140L190 135L190 134L184 134L184 133C188.598 132.803 195.18 132.992 198 129L193 127C201.735 121.278 186.826 122.375 183 124L182 116L189 117L189 116C183.437 114.383 176.945 112.023 171.09 112.288C161.414 112.725 151.597 117.524 146 106L134 109L134 108L142 106L140 104L156 96L157 96C158.362 102.228 174.478 94.8739 179 94L183 97L183 96L180 94L185 93L184 89L187 91L207 86L208 81L206 83L205 83L201 78L193 76L198 76L198 74C204.718 75.4357 215.932 72.825 220 67L222 68L223 64L224 64L227 67C222.429 57.3798 215.131 50.265 206 45M209 45L211 47L209 45z"/>
<path style="fill:#4b714d; stroke:none;" d="M210 45L211 46L210 45z"/>
<path style="fill:#d19660; stroke:none;" d="M45 46L46 47L45 46z"/>
<path style="fill:#e1bf9f; stroke:none;" d="M199 46L200 47L199 46M201 46L202 47L201 46z"/>
<path style="fill:#d19660; stroke:none;" d="M44 47L45 48L44 47z"/>
<path style="fill:#e1bf9f; stroke:none;" d="M192 47L193 50L194 50L195 47L192 47M196 47L197 48L196 47M211 47L214 50L211 47z"/>
<path style="fill:#d19660; stroke:none;" d="M212 47L213 48L212 47M43 48L44 49L43 48z"/>
<path style="fill:#e1bf9f; stroke:none;" d="M184 48L185 49L184 48z"/>
<path style="fill:#d19660; stroke:none;" d="M213 48L214 49L213 48M42 49L43 50L42 49z"/>
<path style="fill:#e1bf9f; stroke:none;" d="M190 49L191 50L190 49z"/>
<path style="fill:#d19660; stroke:none;" d="M41 50L42 51L41 50M40 51L38 54L40 51z"/>
<path style="fill:#e1bf9f; stroke:none;" d="M40 52L41 53L40 52M39 53L40 54L39 53z"/>
<path style="fill:#d19660; stroke:none;" d="M217 53L218 54L217 53z"/>
<path style="fill:#e1bf9f; stroke:none;" d="M38 54L39 55L38 54z"/>
<path style="fill:#f4e9de; stroke:none;" d="M169.667 54.3333L170.333 54.6667L169.667 54.3333z"/>
<path style="fill:#d19660; stroke:none;" d="M218 54L219 55L218 54M37 55L38 56L37 55z"/>
<path style="fill:#e1bf9f; stroke:none;" d="M159 55L157 58L159 55z"/>
<path style="fill:#d19660; stroke:none;" d="M219 55L220 56L219 55M36 56L37 57L36 56M35 57L36 58L35 57M34 58L35 59L34 58M221 58L222 59L221 58z"/>
<path style="fill:#e1bf9f; stroke:none;" d="M50 59L51 60L50 59z"/>
<path style="fill:#d19660; stroke:none;" d="M222 59L223 60L222 59M33 60L34 61L33 60z"/>
<path style="fill:#e1bf9f; stroke:none;" d="M154.667 60.3333L155.333 60.6667L154.667 60.3333z"/>
<path style="fill:#d19660; stroke:none;" d="M223 60L224 61L223 60M32 61L33 62L32 61z"/>
<path style="fill:#f4e9de; stroke:none;" d="M39 62L39 65L41 64L41 63L39 62z"/>
<path style="fill:#e1bf9f; stroke:none;" d="M157 63L161 65L157 63z"/>
<path style="fill:#d19660; stroke:none;" d="M224 62L225 63L224 62M31 63L32 64L31 63z"/>
<path style="fill:#e1bf9f; stroke:none;" d="M162 63L163 64L162 63z"/>
<path style="fill:#d19660; stroke:none;" d="M225 63L226 64L225 63M30 64L31 65L30 64z"/>
<path style="fill:#e1bf9f; stroke:none;" d="M52 64L52 66L54 64L52 64M167 64L167 65L171 66L171 65L167 64z"/>
<path style="fill:#d19660; stroke:none;" d="M223 64L222 68L220 67C214.61 72.255 205.439 74.7038 198 74L198 76L193 76L201 78L205 83L206 83L208 81L207 86L187 91L184 89L185 93L180 94L183 96L183 97L179 94C173.37 94.7581 161.248 101.251 157 96L156 96C154.374 98.1676 136.582 101.665 142 106L134 108L134 109L146 106C149.82 118.869 163.004 112.522 172.035 112.547C177.682 112.562 183.422 115.048 189 116L189 117L182 116L183 124C186.317 123.083 200.055 119.423 193 127L194 130L198 129L184 133L184 134L190 134L190 135L179 140L170.866 140.657L145 142L145 143L153 144L152 146L177 150C171.855 152.65 165.629 154.748 160 153L164 158L164 159L159 157L160 155L159 154L149 153L159 160L155 157C152.994 158.127 152.994 158.873 155 160L155 161C148.687 158.834 140.396 162.291 135 166C140.422 169.037 144.219 169.106 150 167C150.692 170.228 152.101 170.02 155 169L153 165L166 166L166 167L163 168L163 169L187 169L187 170C181.481 171.179 158.058 174.062 157 179L149 179L152 183L129 187L130 190L129 190L128 190C127.483 186.983 124.182 189.042 122 190C120.355 186.039 118.409 184.013 114 185L118 191C108.599 188.067 100.484 188.45 91 189.735C87.5799 190.199 83.3577 189.34 81 192L66 190L48 190L45 180L49 184L57 181L53 182L52 182L52 178C64.093 180.871 79.2277 172.335 91 170L89 167C100.42 168.443 111.294 168.451 122 164L113 162L107 166.167L96 164.167L81 165L83 162L80 165L65 153L69 157L69 158L46 147L46 146L63 152L64 148L58 147L60 146L60 145L24 140L23 140L21 142L21 126L18 125L18 124L23 123L23 122L21 122L21 121L24 122L26 116L39 112.111L64 108L48 107L57 102L55 104L55 105L61 101L43 103L46 97L40 101L40 98L39 98L37 100L36 97L20 92L21 84L32 82L32 81L24 80L23 83L22 83L22 80L21 80C15.1042 100.624 8.94074 120.135 13 142L16 141L19 144L19 145L16 148L25 150L25 151L22 151L29 155L29 156L23 159L35 162L34 160L38 160C34.8698 163.478 31.735 165.277 27 165L32 168L32 169L23 168L20 166L27 184C30.3373 191.067 36.4681 190.468 43 193L43 194L38 194C37.6054 204.747 56.1661 218.802 65 223L65 222L60 218L65 219L65 216L63 214L67 216L79 209C98.9895 209 119.302 209.104 139.17 208.659C144.104 208.548 158.088 206.663 159 213L164 212C168.102 219.312 178.761 219.159 186 217L186 219L190 217L190 219L195 218L193 221L212 204L209 204L208 204L208 206L207 206L198.039 204.626L177 200C178.082 192.918 170.794 195.826 167 198C167.858 194.302 169.302 192.858 173 192L176.433 185.117L186 181L177 180L177 179L192 177L200 176L211 166L195 168L194 164L198 160L195 161L194 160L194 158L198 156L194 153L201 155L199 151L216 149L216 148L197 142C200.773 142.776 204.075 142.37 204 138L212 139L224 132L223 131L220 133L223 126L220 125L222 121L225 121L221 117C219.742 110.226 209.178 108.987 204 112L203 112L197 110L197 109L219 105L224 102L227 98L225 97L225 96L232 94L232 91L235 93L238 93L239 93L228 66L223 64z"/>
<path style="fill:#4b714d; stroke:none;" d="M29 65L30 66L29 65z"/>
<path style="fill:#e1bf9f; stroke:none;" d="M56 67L59 65L56 67M73 67L76 66L73 67z"/>
<path style="fill:#d19660; stroke:none;" d="M226 65L227 66L226 65M29 66L30 67L29 66M221 66L222 67L221 66M28 67L29 68L28 67z"/>
<path style="fill:#e1bf9f; stroke:none;" d="M227 68L229 70L227 68z"/>
<path style="fill:#d19660; stroke:none;" d="M27 69L28 70L27 69z"/>
<path style="fill:#e1bf9f; stroke:none;" d="M221 69L222 70L221 69z"/>
<path style="fill:#d19660; stroke:none;" d="M26.3333 70.6667L26.6667 71.3333L26.3333 70.6667M25.3333 72.6667L25.6667 73.3333L25.3333 72.6667z"/>
<path style="fill:#f4e9de; stroke:none;" d="M34 75L37 73L34 75z"/>
<path style="fill:#e1bf9f; stroke:none;" d="M143 73L144 74L143 73z"/>
<path style="fill:#d19660; stroke:none;" d="M24.3333 74.6667L24.6667 75.3333L24.3333 74.6667z"/>
<path style="fill:#f4e9de; stroke:none;" d="M148 74L148 75L151 75L148 74z"/>
<path style="fill:#d19660; stroke:none;" d="M23 76L22 80L23 80L23 76M184 76L184 77L192 78L184 76M182 77L183 78L182 77z"/>
<path style="fill:#f4e9de; stroke:none;" d="M94.6667 78.3333L95.3333 78.6667L94.6667 78.3333z"/>
<path style="fill:#d19660; stroke:none;" d="M25 79L26 80L25 79z"/>
<path style="fill:#f4e9de; stroke:none;" d="M31 88L31 90L59 93L64 92L65 98L66 98C72.0993 94.2189 78.045 94.4972 85 95L78 92C99.2243 84.7066 128.07 104.334 147 91L146 88L168 87L167 85L171 85L171 84L165 81C153.179 76.0398 136.233 81.502 124 82.3665C102.52 83.8844 79.8244 80.8265 58 82.0432C48.7354 82.5597 39.9413 87.344 31 88M171 81L171 83L173 83L171 81M170 86L171 87L170 86z"/>
<path style="fill:#d19660; stroke:none;" d="M22 88L23 89L22 88z"/>
<path style="fill:#4b714d; stroke:none;" d="M17 89L18 90L17 89z"/>
<path style="fill:#774020; stroke:none;" d="M236.333 89.6667L236.667 90.3333L236.333 89.6667z"/>
<path style="fill:#f4e9de; stroke:none;" d="M149 90L147 93L151 91L149 90z"/>
<path style="fill:#e1bf9f; stroke:none;" d="M188 90L189 91L188 90z"/>
<path style="fill:#f4e9de; stroke:none;" d="M86 92L86 93L94 94L86 92z"/>
<path style="fill:#e1bf9f; stroke:none;" d="M193 92L194 93L193 92z"/>
<path style="fill:#774020; stroke:none;" d="M228.667 92.3333L229.333 92.6667L228.667 92.3333z"/>
<path style="fill:#4b714d; stroke:none;" d="M233 92L234 93L233 92M230 93L225 96L225 97L228 98L225 99L225 100C229.258 99.8114 231.286 97.1947 230 93z"/>
<path style="fill:#f4e9de; stroke:none;" d="M53.6667 94.3333L54.3333 94.6667L53.6667 94.3333M110 95L110 96L114 95L110 95z"/>
<path style="fill:#d19660; stroke:none;" d="M234 94L235 95L234 94M49 95L50 96L49 95z"/>
<path style="fill:#f4e9de; stroke:none;" d="M61 95L62 96L61 95M88.6667 95.3333L89.3333 95.6667L88.6667 95.3333M108 96L109 97L108 96M124 96L125 97L124 96z"/>
<path style="fill:#d19660; stroke:none;" d="M141 97L141 98L152 97L141 97z"/>
<path style="fill:#4b714d; stroke:none;" d="M231 96L232 97L231 96z"/>
<path style="fill:#d19660; stroke:none;" d="M49 100L53 97L49 100M112 97L113 98L112 97z"/>
<path style="fill:#774020; stroke:none;" d="M227 97L228 98L227 97z"/>
<path style="fill:#f4e9de; stroke:none;" d="M87 109C94.038 107.08 102.283 104.825 107 99C102.836 98.4051 87.92 104.685 87 109z"/>
<path style="fill:#e1bf9f; stroke:none;" d="M176 98L180 104L176 98M189 99L189 100L194 102L195 99L189 99z"/>
<path style="fill:#774020; stroke:none;" d="M225.667 98.3333L226.333 98.6667L225.667 98.3333M228 98L227 100L228 98z"/>
<path style="fill:#d19660; stroke:none;" d="M75 99L76 100L75 99M83.6667 99.3333L84.3333 99.6667L83.6667 99.3333z"/>
<path style="fill:#f4e9de; stroke:none;" d="M86 101L86 102L95 100L86 101z"/>
<path style="fill:#d19660; stroke:none;" d="M139 99L137 100L137 101L139 99z"/>
<path style="fill:#e1bf9f; stroke:none;" d="M174 99L175 100L174 99M32 100L30 104L35 102L32 100z"/>
<path style="fill:#d19660; stroke:none;" d="M73 100L74 101L73 100z"/>
<path style="fill:#f4e9de; stroke:none;" d="M128 100L129 101L128 100z"/>
<path style="fill:#d19660; stroke:none;" d="M134 100L135 101L134 100z"/>
<path style="fill:#e1bf9f; stroke:none;" d="M172 100L171 102L172 100z"/>
<path style="fill:#4b714d; stroke:none;" d="M219 100L220 101L219 100z"/>
<path style="fill:#d19660; stroke:none;" d="M70.3333 101.667L70.6667 102.333L70.3333 101.667M128 102L128 103L133 102L128 102z"/>
<path style="fill:#e1bf9f; stroke:none;" d="M149 101L150 102L149 101M27 103L23 105L23 106L27 103z"/>
<path style="fill:#f4e9de; stroke:none;" d="M82 106L85 103L82 106z"/>
<path style="fill:#d19660; stroke:none;" d="M91.6667 103.333L92.3333 103.667L91.6667 103.333M126 103L127 104L126 103z"/>
<path style="fill:#f4e9de; stroke:none;" d="M132.667 103.333L133.333 103.667L132.667 103.333z"/>
<path style="fill:#d19660; stroke:none;" d="M133 106L140 104L133 106z"/>
<path style="fill:#e1bf9f; stroke:none;" d="M145 103L146 104L145 103z"/>
<path style="fill:#d19660; stroke:none;" d="M64 104L64 105L67 105L64 104z"/>
<path style="fill:#f4e9de; stroke:none;" d="M79 104L80 105L79 104z"/>
<path style="fill:#d19660; stroke:none;" d="M115 104L115 105L122 105L115 104z"/>
<path style="fill:#f4e9de; stroke:none;" d="M123 105L123 106L129 105L123 105M130.667 104.333L131.333 104.667L130.667 104.333z"/>
<path style="fill:#e1bf9f; stroke:none;" d="M46 105L47 106L46 105M149 105L149 107L151 107L149 105z"/>
<path style="fill:#f4e9de; stroke:none;" d="M111 106L111 107L114 107L111 106M120.667 106.333L121.333 106.667L120.667 106.333z"/>
<path style="fill:#d19660; stroke:none;" d="M129.667 106.333L130.333 106.667L129.667 106.333z"/>
<path style="fill:#e1bf9f; stroke:none;" d="M153.667 106.333L154.333 106.667L153.667 106.333z"/>
<path style="fill:#4b714d; stroke:none;" d="M13 107L14 108L13 107z"/>
<path style="fill:#d19660; stroke:none;" d="M72 111L68 109L74 112L78 108C74.9394 107.182 73.5357 108.36 72 111M120 108L120 109L129 108L120 108z"/>
<path style="fill:#f4e9de; stroke:none;" d="M65 108L66 109L65 108z"/>
<path style="fill:#774020; stroke:none;" d="M197 109L197 110L204 112L203 109L197 109z"/>
<path style="fill:#d19660; stroke:none;" d="M215 109L216 110L215 109z"/>
<path style="fill:#4b714d; stroke:none;" d="M203 110L204 111L203 110z"/>
<path style="fill:#d19660; stroke:none;" d="M219 111L219 112L222 113L222 110L219 111M64.6667 111.333L65.3333 111.667L64.6667 111.333z"/>
<path style="fill:#f4e9de; stroke:none;" d="M139.667 111.333L140.333 111.667L139.667 111.333M130 112L131 113L130 112M133 112L133 117C109.879 112.993 86.2654 117.43 63.4244 113.866C57.114 112.881 38.999 110.753 35 116L42 119L30 120L30 121L37 120L38 125L35 124L37 127L33 127C34.2645 130.801 36.3125 130.768 40 130L26 137L34 142C42.8569 139.248 61.6166 141.252 71 143L85 144L99 142L133 140L146 138L154 140L154 139L152 138L159 137L175 139L172 133L176 132L176 131L160 131L160 130L165 127L165 126L159 123L164 125L163 122L175 121L175 123L178 122C173.146 117.809 166.022 117.57 160 119L161 116L158 119L157 116L151 115L151 118L146 116L137 117L137 116L140 115L133 112z"/>
<path style="fill:#e1bf9f; stroke:none;" d="M190 112L191 113L190 112z"/>
<path style="fill:#f4e9de; stroke:none;" d="M125.667 113.333L126.333 113.667L125.667 113.333z"/>
<path style="fill:#d19660; stroke:none;" d="M175 114L176 115L175 114z"/>
<path style="fill:#f4e9de; stroke:none;" d="M146 115L146 116L149 117L146 115z"/>
<path style="fill:#d19660; stroke:none;" d="M224 116L225 117L224 116z"/>
<path style="fill:#e1bf9f; stroke:none;" d="M190 117L190 118L198 119L198 118L190 117z"/>
<path style="fill:#4b714d; stroke:none;" d="M11.3333 118.667L11.6667 119.333L11.3333 118.667z"/>
<path style="fill:#774020; stroke:none;" d="M220.667 118.333L221.333 118.667L220.667 118.333z"/>
<path style="fill:#e1bf9f; stroke:none;" d="M197.667 122.333L198.333 122.667L197.667 122.333z"/>
<path style="fill:#4b714d; stroke:none;" d="M223 122L224 123L223 122z"/>
<path style="fill:#e1bf9f; stroke:none;" d="M155.667 123.333L156.333 123.667L155.667 123.333z"/>
<path style="fill:#d19660; stroke:none;" d="M178 123L179 124L178 123z"/>
<path style="fill:#f4e9de; stroke:none;" d="M29 124L29 126L31 124L29 124M170.333 124.667L170.667 125.333L170.333 124.667z"/>
<path style="fill:#d19660; stroke:none;" d="M174 124L175 125L174 124M188 124L190 127L190 124L188 124z"/>
<path style="fill:#e1bf9f; stroke:none;" d="M145 129L148 126L145 129M149.667 126.333L150.333 126.667L149.667 126.333z"/>
<path style="fill:#d19660; stroke:none;" d="M177 130L178 130L181 127L177 130M182 126L183 127L182 126z"/>
<path style="fill:#f4e9de; stroke:none;" d="M165 127L166 128L165 127z"/>
<path style="fill:#774020; stroke:none;" d="M218 127L219 128L218 127z"/>
<path style="fill:#d19660; stroke:none;" d="M184 128L185 129L184 128M190 128L190 130L192 128L190 128z"/>
<path style="fill:#f4e9de; stroke:none;" d="M31 130L26 135L34 132L31 130z"/>
<path style="fill:#e1bf9f; stroke:none;" d="M156.667 130.333L157.333 130.667L156.667 130.333z"/>
<path style="fill:#d19660; stroke:none;" d="M223 130L224 131L223 130z"/>
<path style="fill:#e1bf9f; stroke:none;" d="M17 132L18 133L17 132M158.667 132.333L159.333 132.667L158.667 132.333M165.667 132.333L166.333 132.667L165.667 132.333z"/>
<path style="fill:#4b714d; stroke:none;" d="M220 132L221 133L220 132z"/>
<path style="fill:#e1bf9f; stroke:none;" d="M155 133L156 134L155 133z"/>
<path style="fill:#4b714d; stroke:none;" d="M222 133L222 135L224 133L222 133z"/>
<path style="fill:#f4e9de; stroke:none;" d="M175 134C176.556 135.813 177.444 135.813 179 134L175 134z"/>
<path style="fill:#d19660; stroke:none;" d="M183 134L184 135L183 134z"/>
<path style="fill:#4b714d; stroke:none;" d="M217 134L217 135L221 135L217 134z"/>
<path style="fill:#e1bf9f; stroke:none;" d="M17.3333 135.667L17.6667 136.333L17.3333 135.667z"/>
<path style="fill:#f4e9de; stroke:none;" d="M23.6667 136.333L24.3333 136.667L23.6667 136.333z"/>
<path style="fill:#e1bf9f; stroke:none;" d="M162.667 136.333L163.333 136.667L162.667 136.333z"/>
<path style="fill:#4b714d; stroke:none;" d="M213 136L214 137L213 136M218 136L221 138L218 136z"/>
<path style="fill:#e1bf9f; stroke:none;" d="M196.667 137.333L197.333 137.667L196.667 137.333z"/>
<path style="fill:#d19660; stroke:none;" d="M216 137L217 139L218 139L219 137L216 137z"/>
<path style="fill:#e1bf9f; stroke:none;" d="M189.667 138.333L190.333 138.667L189.667 138.333z"/>
<path style="fill:#774020; stroke:none;" d="M204 138L205 139L204 138z"/>
<path style="fill:#4b714d; stroke:none;" d="M205 138L206 139L205 138M208 138L209 139L208 138M210 138L211 139L210 138M12 139L13 140L12 139z"/>
<path style="fill:#d19660; stroke:none;" d="M165 139L166 140L165 139z"/>
<path style="fill:#4b714d; stroke:none;" d="M16 142L17 143L16 142z"/>
<path style="fill:#d19660; stroke:none;" d="M132 142L133 143L132 142M65 143L63 146L71 145L71 144L65 143z"/>
<path style="fill:#f4e9de; stroke:none;" d="M106 143L106 144L110 144L110 143L106 143M118 143L124 145L124 144L118 143z"/>
<path style="fill:#d19660; stroke:none;" d="M140 144L139 147L134 149L148 153L156 150L156 149C151.093 148.7 143.513 149.625 142 144L140 144z"/>
<path style="fill:#774020; stroke:none;" d="M19.6667 145.333L20.3333 145.667L19.6667 145.333z"/>
<path style="fill:#d19660; stroke:none;" d="M77 145L77 146L83 147L77 145M88 145L90 147L88 145z"/>
<path style="fill:#e1bf9f; stroke:none;" d="M185.667 145.333L186.333 145.667L185.667 145.333z"/>
<path style="fill:#f4e9de; stroke:none;" d="M72 149L78 149C78.7429 153.448 80.8216 153.869 85 153C82.5338 148.503 75.982 143.436 72 149z"/>
<path style="fill:#e1bf9f; stroke:none;" d="M77 146L77 147L80 147L77 146z"/>
<path style="fill:#d19660; stroke:none;" d="M85.3333 146.667L85.6667 147.333L85.3333 146.667M103 146L103 147L108 148L108 147L103 146M98.6667 147.333L99.3333 147.667L98.6667 147.333M109 147L110 148L109 147M121 147L121 148L127 148L121 147M128 147L132 150L132 149L130 147L128 147M132 147L133 148L132 147z"/>
<path style="fill:#e1bf9f; stroke:none;" d="M35 151L41 150C38.3021 148.479 36.7813 148.407 35 151z"/>
<path style="fill:#f4e9de; stroke:none;" d="M88 148L88 150L90 150L88 148M91 150L101 150C97.8029 148.3 93.6172 147.02 91 150M101 148L101 149L106 156L111 153L101 148M162 148L163 149L162 148z"/>
<path style="fill:#774020; stroke:none;" d="M178 148L179 149L178 148z"/>
<path style="fill:#e1bf9f; stroke:none;" d="M42 149L42 150L45 150L42 149M46 149L50 152L46 149z"/>
<path style="fill:#f4e9de; stroke:none;" d="M54 149L55 150L54 149z"/>
<path style="fill:#d19660; stroke:none;" d="M68 149L69 150L68 149M84 149L88 153L84 149z"/>
<path style="fill:#f4e9de; stroke:none;" d="M122 149L123 154L130 156C129.231 151.14 126.765 149.533 122 149M172.667 149.333L173.333 149.667L172.667 149.333z"/>
<path style="fill:#d19660; stroke:none;" d="M48 150L49 151L48 150z"/>
<path style="fill:#f4e9de; stroke:none;" d="M56 150L56 151L60 152L60 151L56 150M64 150C66.1657 154.036 69.6069 155.241 74 156L64 150z"/>
<path style="fill:#d19660; stroke:none;" d="M70 150L71 151L70 150z"/>
<path style="fill:#e1bf9f; stroke:none;" d="M84.3333 150.667L84.6667 151.333L84.3333 150.667z"/>
<path style="fill:#f4e9de; stroke:none;" d="M136 151C136.851 156.083 139.815 155.603 144 154L141 150L136 151z"/>
<path style="fill:#d19660; stroke:none;" d="M157 150L158 151L157 150M160 150L165 154L166 151L160 150M71 151L72 152L71 151M72 152L72 153L80 156L80 155L72 152z"/>
<path style="fill:#f4e9de; stroke:none;" d="M97 153L96 155L97 153M110 155L110 156L120 158L121 153L110 155z"/>
<path style="fill:#e1bf9f; stroke:none;" d="M37 168L40 169L46 164L46 167C52.2268 166.272 62.9644 164.248 64 173L68 169L69 169L70 173L81 170L81 168L68 163L71 164C64.5887 146.039 42.8528 156.271 37 168z"/>
<path style="fill:#f4e9de; stroke:none;" d="M88 154L90 156L90 154L88 154z"/>
<path style="fill:#e1bf9f; stroke:none;" d="M128 154L129 155L128 154z"/>
<path style="fill:#d19660; stroke:none;" d="M146 154L146 159L151 158L151 157L146 154z"/>
<path style="fill:#e1bf9f; stroke:none;" d="M172.333 154.667L172.667 155.333L172.333 154.667z"/>
<path style="fill:#d19660; stroke:none;" d="M205 154L206 155L205 154M132 155C134.935 159.787 137.14 161.25 142 158L141 162L145 158L132 155z"/>
<path style="fill:#e1bf9f; stroke:none;" d="M136 155L137 156L136 155z"/>
<path style="fill:#f4e9de; stroke:none;" d="M49 157L49 158L66 163C62.3152 157.331 55.4419 155.979 49 157z"/>
<path style="fill:#d19660; stroke:none;" d="M80 156C81.1841 159.852 83.1391 160.475 87 161L82 159L82 156L80 156z"/>
<path style="fill:#f4e9de; stroke:none;" d="M93 156L94 157L93 156z"/>
<path style="fill:#d19660; stroke:none;" d="M96.6667 156.333L97.3333 156.667L96.6667 156.333z"/>
<path style="fill:#e1bf9f; stroke:none;" d="M137 156L137 157L140 157L137 156z"/>
<path style="fill:#774020; stroke:none;" d="M166 156L168 158L168 156L166 156M186.667 156.333L187.333 156.667L186.667 156.333M39 157L40 158L39 157z"/>
<path style="fill:#f4e9de; stroke:none;" d="M104 157L104 160L106 160L106 157L104 157z"/>
<path style="fill:#d19660; stroke:none;" d="M107 157L107 158L113 158L107 157M126 157L126 158L129 158L126 157z"/>
<path style="fill:#774020; stroke:none;" d="M173.667 157.333L174.333 157.667L173.667 157.333z"/>
<path style="fill:#d19660; stroke:none;" d="M198.667 157.333L199.333 157.667L198.667 157.333z"/>
<path style="fill:#f4e9de; stroke:none;" d="M47 158L48 159L47 158z"/>
<path style="fill:#d19660; stroke:none;" d="M98 158L99 159L98 158M117 158L120 160L120 159L117 158z"/>
<path style="fill:#774020; stroke:none;" d="M38 159L39 160L38 159z"/>
<path style="fill:#e1bf9f; stroke:none;" d="M69.6667 159.333L70.3333 159.667L69.6667 159.333z"/>
<path style="fill:#d19660; stroke:none;" d="M99 159L99 160L102 160L99 159M124 166L135 165L135 164L131 163L132 159C127.822 160.252 125.493 161.835 124 166z"/>
<path style="fill:#774020; stroke:none;" d="M191 159L191 161L193 159L191 159M31.6667 160.333L32.3333 160.667L31.6667 160.333z"/>
<path style="fill:#f4e9de; stroke:none;" d="M97 160L98 161L97 160z"/>
<path style="fill:#d19660; stroke:none;" d="M102 160L102 161L108 162L108 161L102 160M123 161L124 162L123 161z"/>
<path style="fill:#e1bf9f; stroke:none;" d="M148 161L151 165L151 161L148 161z"/>
<path style="fill:#774020; stroke:none;" d="M187 161L187 162L190 163L187 161z"/>
<path style="fill:#d19660; stroke:none;" d="M199 161L200 162L199 161M90.6667 162.333L91.3333 162.667L90.6667 162.333z"/>
<path style="fill:#f4e9de; stroke:none;" d="M99.6667 163.333L100.333 163.667L99.6667 163.333z"/>
<path style="fill:#e1bf9f; stroke:none;" d="M117 163L118 164L117 163z"/>
<path style="fill:#774020; stroke:none;" d="M192 163L193 164L192 163z"/>
<path style="fill:#f4e9de; stroke:none;" d="M64.3333 164.667L64.6667 165.333L64.3333 164.667M155 166L155 167L159 165L155 166z"/>
<path style="fill:#774020; stroke:none;" d="M192 165L191 167L193 167L192 165z"/>
<path style="fill:#4b714d; stroke:none;" d="M211 165L206 171L206 172L217 167L211 165z"/>
<path style="fill:#f4e9de; stroke:none;" d="M119 166L121 169C103.985 169.817 86.8966 168.926 71 176L71 177L76 178L76 176L106 181L108 176L112 179L148.015 174.525L161 170L133 167.61L119 166z"/>
<path style="fill:#774020; stroke:none;" d="M212 166L208 172L212 166z"/>
<path style="fill:#4b714d; stroke:none;" d="M195.667 167.333L196.333 167.667L195.667 167.333z"/>
<path style="fill:#e1bf9f; stroke:none;" d="M36 169L36 172L38 171L38 170L36 169M47 169L48 170L47 169z"/>
<path style="fill:#4b714d; stroke:none;" d="M205 172L206 173L205 172z"/>
<path style="fill:#e1bf9f; stroke:none;" d="M36 173C39.5054 177.222 44.7082 178.222 50 179L36 173z"/>
<path style="fill:#4b714d; stroke:none;" d="M201 175L204 174L201 175z"/>
<path style="fill:#774020; stroke:none;" d="M25 174L26 175L25 174z"/>
<path style="fill:#f4e9de; stroke:none;" d="M120.333 177.667L120.667 178.333L120.333 177.667z"/>
<path style="fill:#d19660; stroke:none;" d="M136 177L135 180L139 182L138 177L136 177M144 177L148 183L144 177M197.667 177.333L198.333 177.667L197.667 177.333M67 178L71 182L67 178M85 178L88 180L85 178M109.667 178.333L110.333 178.667L109.667 178.333M129 180L132 178L129 180z"/>
<path style="fill:#e1bf9f; stroke:none;" d="M158 180L161 178L158 180z"/>
<path style="fill:#774020; stroke:none;" d="M167 179L168 180L167 179z"/>
<path style="fill:#e1bf9f; stroke:none;" d="M42 180L43 181L42 180z"/>
<path style="fill:#f4e9de; stroke:none;" d="M93 180L93 181L96 181L93 180z"/>
<path style="fill:#774020; stroke:none;" d="M156 180L156 182L158 182L158 180L156 180z"/>
<path style="fill:#d19660; stroke:none;" d="M26 182L27 183L26 182z"/>
<path style="fill:#f4e9de; stroke:none;" d="M73 182L74 183L73 182M98.3333 182.667L98.6667 183.333L98.3333 182.667M101 182L102 183L101 182z"/>
<path style="fill:#d19660; stroke:none;" d="M141 182L142 183L141 182z"/>
<path style="fill:#774020; stroke:none;" d="M164 182L165 183L164 182M180 182L180 184L182 184L182 182L180 182z"/>
<path style="fill:#f4e9de; stroke:none;" d="M84 183L85 184L84 183M89 186L97 187C95.2733 182.704 91.7292 182.215 89 186z"/>
<path style="fill:#774020; stroke:none;" d="M166.333 183.667L166.667 184.333L166.333 183.667M174 183L175 184L174 183z"/>
<path style="fill:#d19660; stroke:none;" d="M68 184L69 185L68 184z"/>
<path style="fill:#f4e9de; stroke:none;" d="M86.6667 184.333L87.3333 184.667L86.6667 184.333z"/>
<path style="fill:#774020; stroke:none;" d="M172 184L173 185L172 184z"/>
<path style="fill:#f4e9de; stroke:none;" d="M99.6667 185.333L100.333 185.667L99.6667 185.333z"/>
<path style="fill:#774020; stroke:none;" d="M170 185L171 186L170 185z"/>
<path style="fill:#e1bf9f; stroke:none;" d="M117 186L118 187L117 186M137 186L138 187L137 186M150 186L151 187L150 186z"/>
<path style="fill:#f4e9de; stroke:none;" d="M77 190L83 187C79.8058 187.013 77.7292 186.597 77 190M86 187L85 189L87 189L86 187z"/>
<path style="fill:#e1bf9f; stroke:none;" d="M126 190L127 191L126 190z"/>
<path style="fill:#774020; stroke:none;" d="M164.667 191.333L165.333 191.667L164.667 191.333M54 192L55 193L54 192z"/>
<path style="fill:#e1bf9f; stroke:none;" d="M110 192L111 195C114.268 194.455 115.676 194.297 115 197L120 194L120 193L110 192z"/>
<path style="fill:#774020; stroke:none;" d="M46 193L47 194L46 193M49 193L50 194L49 193z"/>
<path style="fill:#e1bf9f; stroke:none;" d="M121 193L121 194L124 197L125 197L121 193z"/>
<path style="fill:#d19660; stroke:none;" d="M35 194L36 195L35 194M182 194L183 195L182 194M36 195L37 196L36 195z"/>
<path style="fill:#e1bf9f; stroke:none;" d="M144 197L144 199L152 197L144 197M111 196L114 201L115 201L111 196M121 196L122 197L121 196M100 197L100 200L105 200L100 197M118 197L116 200L118 197z"/>
<path style="fill:#4b714d; stroke:none;" d="M198 197L198 198L198 199L201 198L201 197L198 197z"/>
<path style="fill:#d19660; stroke:none;" d="M199 197L200 198L199 197z"/>
<path style="fill:#f4e9de; stroke:none;" d="M101.667 198.333L102.333 198.667L101.667 198.333z"/>
<path style="fill:#e1bf9f; stroke:none;" d="M122 198L123 199L122 198M85 199L86 200L85 199z"/>
<path style="fill:#774020; stroke:none;" d="M46 200L44 202L47 205L48 204L46 200z"/>
<path style="fill:#e1bf9f; stroke:none;" d="M82 200L84 202L84 200L82 200z"/>
<path style="fill:#774020; stroke:none;" d="M169 200L170 201L169 200z"/>
<path style="fill:#4b714d; stroke:none;" d="M170 200L171 201L170 200M172 201L172 202L176 201L172 201z"/>
<path style="fill:#d19660; stroke:none;" d="M184 200L185 201L184 200z"/>
<path style="fill:#4b714d; stroke:none;" d="M186 200L185 203L197 204L197 203L189 200L188 200L188 202L186 200M181 201L181 202L184 202L181 201z"/>
<path style="fill:#774020; stroke:none;" d="M184 201L185 202L184 201z"/>
<path style="fill:#d19660; stroke:none;" d="M189 201L190 202L189 201z"/>
<path style="fill:#774020; stroke:none;" d="M192 201L193 202L192 201z"/>
<path style="fill:#4b714d; stroke:none;" d="M197 204L197 205L206 205L205 202L197 204z"/>
<path style="fill:#d19660; stroke:none;" d="M42 203L43 204L42 203z"/>
<path style="fill:#4b714d; stroke:none;" d="M206 203L207 206L210 204L209 206L210 206L211 204L206 203M211 203L212 204L211 203M47.6667 204.333L48.3333 204.667L47.6667 204.333z"/>
<path style="fill:#774020; stroke:none;" d="M202 204L203 205L202 204M209 204L210 205L209 204z"/>
<path style="fill:#e1bf9f; stroke:none;" d="M79 209L67 216L65 216L65 219L60 218C63.7164 222.497 68.9904 226.346 75 226L74 228L77 227L76 229L115.985 226.975L185 226L184 224L187 225L188 222L195 218L190 219L190 217L186 219L186 217C178.034 218.901 169.507 218.683 164 212L159 213C158.664 206.54 145.071 208.272 140.015 208.319C119.727 208.505 99.3413 209 79 209z"/>
<path style="fill:#d19660; stroke:none;" d="M156.667 210.333L157.333 210.667L156.667 210.333z"/>
<path style="fill:#e1bf9f; stroke:none;" d="M166 211L167 212L166 211M170 211L171 212L170 211M167 213L166 215L167 213M198 215L199 216L198 215M57 216L60 218L57 216z"/>
<path style="fill:#d19660; stroke:none;" d="M154 216L155 217L154 216M164 216L165 217L164 216z"/>
<path style="fill:#e1bf9f; stroke:none;" d="M62 217L63 218L62 217M195.667 217.333L196.333 217.667L195.667 217.333z"/>
<path style="fill:#d19660; stroke:none;" d="M66 218L67 219L66 218M191 221L192 222L191 221z"/>
<path style="fill:#f4e9de; stroke:none;" d="M188 222L189 223L188 222z"/>
<path style="fill:#d19660; stroke:none;" d="M190 222L191 223L190 222z"/>
<path style="fill:#4b714d; stroke:none;" d="M65 223L66 224L65 223z"/>
<path style="fill:#d19660; stroke:none;" d="M66 223L67 224L66 223z"/>
<path style="fill:#f4e9de; stroke:none;" d="M186 223L187 224L186 223z"/>
<path style="fill:#d19660; stroke:none;" d="M188 223L189 224L188 223M67 224L68 225L67 224z"/>
<path style="fill:#f4e9de; stroke:none;" d="M184.667 224.333L185.333 224.667L184.667 224.333z"/>
<path style="fill:#d19660; stroke:none;" d="M69 225L70 226L69 225z"/>
<path style="fill:#f4e9de; stroke:none;" d="M77 228L77 229C109.819 244.348 152.266 244.452 184 226L149.285 226.135L77 228z"/>
<path style="fill:#d19660; stroke:none;" d="M185 225L186 226L185 225M71 226L72 227L71 226z"/>
<path style="fill:#f4e9de; stroke:none;" d="M73.6667 226.333L74.3333 226.667L73.6667 226.333z"/>
<path style="fill:#d19660; stroke:none;" d="M183 226L184 227L183 226M73 227L74 228L73 227z"/>
<path style="fill:#f4e9de; stroke:none;" d="M75.6667 227.333L76.3333 227.667L75.6667 227.333z"/>
<path style="fill:#d19660; stroke:none;" d="M181 227L182 228L181 227z"/>
<path style="fill:#4b714d; stroke:none;" d="M74 228L75 229L74 228z"/>
<path style="fill:#d19660; stroke:none;" d="M75 228L76 229L75 228M179 228L180 229L179 228M77 229L78 230L77 229M177 229L178 230L177 229z"/>
<path style="fill:#4b714d; stroke:none;" d="M78 230L79 231L78 230z"/>
<path style="fill:#d19660; stroke:none;" d="M79 230L80 231L79 230z"/>
<path style="fill:#e1bf9f; stroke:none;" d="M80 230L81 231L80 230M174 230L175 231L174 230z"/>
<path style="fill:#d19660; stroke:none;" d="M175 230L176 231L175 230M81 231L82 232L81 231z"/>
<path style="fill:#e1bf9f; stroke:none;" d="M82 231L83 232L82 231M172 231L173 232L172 231z"/>
<path style="fill:#d19660; stroke:none;" d="M173 231L174 232L173 231z"/>
<path style="fill:#4b714d; stroke:none;" d="M83 232L84 233L83 232z"/>
<path style="fill:#d19660; stroke:none;" d="M84 232L85 233L84 232z"/>
<path style="fill:#e1bf9f; stroke:none;" d="M85 232L86 233L85 232M169 232L170 233L169 232z"/>
<path style="fill:#d19660; stroke:none;" d="M170 232L171 233L170 232z"/>
<path style="fill:#4b714d; stroke:none;" d="M171 232L172 233L171 232z"/>
<path style="fill:#d19660; stroke:none;" d="M86 233L87 234L86 233z"/>
<path style="fill:#e1bf9f; stroke:none;" d="M87.6667 233.333L88.3333 233.667L87.6667 233.333z"/>
<path style="fill:#d19660; stroke:none;" d="M167.667 233.333L168.333 233.667L167.667 233.333M89 234L90 235L89 234z"/>
<path style="fill:#e1bf9f; stroke:none;" d="M90.6667 234.333L91.3333 234.667L90.6667 234.333z"/>
<path style="fill:#d19660; stroke:none;" d="M164.667 234.333L165.333 234.667L164.667 234.333M92.6667 235.333L93.3333 235.667L92.6667 235.333z"/>
<path style="fill:#e1bf9f; stroke:none;" d="M94 235L95 236L94 235M160 235L161 236L160 235z"/>
<path style="fill:#d19660; stroke:none;" d="M161.667 235.333L162.333 235.667L161.667 235.333z"/>
<path style="fill:#4b714d; stroke:none;" d="M95 236L96 237L95 236z"/>
<path style="fill:#d19660; stroke:none;" d="M96 236L97 237L96 236z"/>
<path style="fill:#e1bf9f; stroke:none;" d="M97 236L98 237L97 236M157 236L158 237L157 236z"/>
<path style="fill:#d19660; stroke:none;" d="M158 236L159 237L158 236M99.6667 237.333L100.333 237.667L99.6667 237.333z"/>
<path style="fill:#e1bf9f; stroke:none;" d="M101 237L102 238L101 237M152.667 237.333L153.333 237.667L152.667 237.333z"/>
<path style="fill:#d19660; stroke:none;" d="M154 237L155 238L154 237z"/>
<path style="fill:#4b714d; stroke:none;" d="M155 237L156 238L155 237M103 238L104 239L103 238z"/>
<path style="fill:#d19660; stroke:none;" d="M104.667 238.333L105.333 238.667L104.667 238.333z"/>
<path style="fill:#e1bf9f; stroke:none;" d="M106 238L106 239L109 239L106 238M147.667 238.333L148.333 238.667L147.667 238.333z"/>
<path style="fill:#d19660; stroke:none;" d="M149.667 238.333L150.333 238.667L149.667 238.333z"/>
<path style="fill:#4b714d; stroke:none;" d="M109 239L110 240L109 239z"/>
<path style="fill:#d19660; stroke:none;" d="M110 239L110 240L114 240L110 239z"/>
<path style="fill:#e1bf9f; stroke:none;" d="M114.667 239.333L115.333 239.667L114.667 239.333M138 239L138 240L141 240L138 239z"/>
<path style="fill:#d19660; stroke:none;" d="M141 239L141 240L146 240L141 239M118 240L118 241L134 241L118 240z"/>
<path style="fill:#4b714d; stroke:none;" d="M134 240L135 241L134 240z"/>
</svg>
